# xmcd
#
# Track frame offsets:
#	150
#	23876
#	47665
#	67644
#	83490
#	99162
#	122485
#	142841
#
# Disc length: 2236 seconds
#
# Revision: 0
# Processed by: cddbd v1.5.2PL0 Copyright (c) Steve Scherf et al.
# Submitted via: EasyCDDAExtractor 2010.4.0.0
#
DISCID=4f08ba08
DTITLE=Mickey Newbury - Heaven Help the Child
DYEAR=2011
DGENRE=Country
TTITLE0=Heaven Help the Child
TTITLE1=Good Morning Dear
TTITLE2=Sunshine
TTITLE3=Sweet Memories
TTITLE4=Why You Been Gone So Long
TTITLE5=Cortelia Clark
TTITLE6=Song for Susan
TTITLE7=San Francisco Mabel Joy
EXTD=
EXTT0=
EXTT1=
EXTT2=
EXTT3=
EXTT4=
EXTT5=
EXTT6=
EXTT7=
PLAYORDER=
